# xmcd CD database file
#
# Track frame offsets:
#	150
#	14011
#	26816
#	38769
#	52110
#	66366
#	79394
#	90415
#	105206
#	120430
#	132041
#	145182
#	158453
#	169617
#	181947
#	196088
#	207075
#	221226
#	234079
#	249322
#	260321
#	272981
#	283388
#	294387
#	308543
#	324449
#	337816
#	353430
#	367850
#	379091
#	391635
#
# Disc length: 5329 seconds
#
# Revision: 0
# Processed by: cddbd v1.5.2PL0 Copyright (c) Steve Scherf et al.
# Submitted via: CDex 1.51
#
DISCID=ad14cf1f
DTITLE=VA - Der Jazz in Deutschland - Vol 2 CD 5 - die Swing-Jahre
DYEAR=2008
DGENRE=Jazz
TTITLE0=Lime House Blues
TTITLE1=Ich hab' eine Schwäche für blonde Frau'n 
TTITLE2=Warum ist die Banane gelb?
TTITLE3=Komm in den kleinen Pavillon
TTITLE4=St. Louis Blues 
TTITLE5=Eskapaden 
TTITLE6=Hallo Benny 
TTITLE7=In The Mood
TTITLE8=Pampas
TTITLE9=Lieselott
TTITLE10=Sie will nicht Blumen und nicht Schokolade
TTITLE11=Amazonas 
TTITLE12=Schönes Wetter [heute und so nette Leute]
TTITLE13=Lieber Sonnenschein (Pippo non lo sa)
TTITLE14=Amazonas
TTITLE15=Heisse Tage
TTITLE16=U-Bahn Fox (Metro Stomp)
TTITLE17=Heut' abend woll'n wir bummeln geh'n 
TTITLE18=Rendez-vous in Lausanne
TTITLE19=Er heißt Waldemar
TTITLE20=Margie 
TTITLE21=Tanz der Pinguinen [sic]
TTITLE22=Hallo Benny 
TTITLE23=Sand-Dünen
TTITLE24=Trommelei
TTITLE25=I Got Rhythm 
TTITLE26=Rhythmus in Indien
TTITLE27=Cymbal-Promenade 
TTITLE28=Grand Hotel 
TTITLE29=Mit Musik geht alles besser
TTITLE30=Heisse Tage 
EXTD=YEAR: 2008
EXTT0=
EXTT1=
EXTT2=
EXTT3=
EXTT4=
EXTT5=
EXTT6=
EXTT7=
EXTT8=
EXTT9=
EXTT10=
EXTT11=
EXTT12=
EXTT13=
EXTT14=
EXTT15=
EXTT16=
EXTT17=
EXTT18=
EXTT19=
EXTT20=
EXTT21=
EXTT22=
EXTT23=
EXTT24=
EXTT25=
EXTT26=
EXTT27=
EXTT28=
EXTT29=
EXTT30=
PLAYORDER=
